<svg width="25" height="26" viewBox="0 0 25 26" fill="none" xmlns="http://www.w3.org/2000/svg">
<path fill-rule="evenodd" clip-rule="evenodd" d="M24 21.0401V18.4429C24 18.1186 23.7289 17.8557 23.3945 17.8557C23.0601 17.8557 22.7891 18.1186 22.7891 18.4429V21.0401C22.7891 22.4597 21.5982 23.6147 20.1344 23.6147H17.4565C17.1221 23.6147 16.851 23.8776 16.851 24.2019C16.851 24.5262 17.1221 24.7891 17.4565 24.7891H20.1344C22.2659 24.7891 24 23.1073 24 21.0401M7.14894 24.2019C7.14894 23.8776 6.87786 23.6147 6.54349 23.6147H3.86555C2.40179 23.6147 1.21089 22.4597 1.21089 21.0401V18.4429C1.21089 18.1186 0.939817 17.8557 0.605447 17.8557C0.271077 17.8557 0 18.1186 0 18.4429V21.0401C0 23.1073 1.73409 24.7891 3.86555 24.7891H6.54349C6.87786 24.7891 7.14894 24.5262 7.14894 24.2019M1.21089 7.13521V4.53803C1.21089 3.11839 2.40179 1.96344 3.86555 1.96344H6.54349C6.87786 1.96344 7.14894 1.70054 7.14894 1.37625C7.14894 1.05196 6.87786 0.789062 6.54349 0.789062H3.86555C1.73409 0.789062 0 2.47084 0 4.53803V7.13521C0 7.45949 0.271077 7.72239 0.605447 7.72239C0.939817 7.72239 1.21089 7.45949 1.21089 7.13521M24 7.13521V4.53803C24 2.47084 22.2659 0.789062 20.1344 0.789062H17.4565C17.1221 0.789062 16.851 1.05196 16.851 1.37625C16.851 1.70054 17.1221 1.96344 17.4565 1.96344H20.1344C21.5982 1.96344 22.7891 3.11839 22.7891 4.53803V7.13521C22.7891 7.45949 23.0601 7.72239 23.3945 7.72239C23.7289 7.72239 24 7.45949 24 7.13521M16.1401 18.3899C16.3929 18.1592 16.4085 17.7699 16.1751 17.5202C15.9416 17.2706 15.5474 17.2551 15.2947 17.4857C14.3953 18.3063 13.2253 18.7583 12 18.7583C10.7747 18.7583 9.60466 18.3063 8.70531 17.4857C8.45251 17.2551 8.05843 17.2706 7.82494 17.5202C7.59148 17.7699 7.6071 18.1592 7.85985 18.3899C8.99013 19.4211 10.4604 19.9891 12 19.9891C13.5396 19.9891 15.0099 19.4211 16.1401 18.3899M13.2766 14.5946V9.9724C13.2766 9.61341 13.015 9.3224 12.6924 9.3224C12.3697 9.3224 12.1082 9.61341 12.1082 9.9724V14.5946C12.1082 14.7937 11.9626 14.9557 11.7836 14.9557H11.3076C10.9849 14.9557 10.7234 15.2467 10.7234 15.6057C10.7234 15.9647 10.9849 16.2557 11.3076 16.2557H11.7836C12.6068 16.2557 13.2766 15.5106 13.2766 14.5946M17.3617 11.8849V9.9599C17.3617 9.60782 17.1331 9.3224 16.8511 9.3224C16.5691 9.3224 16.3404 9.60782 16.3404 9.9599V11.8849C16.3404 12.237 16.5691 12.5224 16.8511 12.5224C17.1331 12.5224 17.3617 12.237 17.3617 11.8849M7.14892 12.5224V12.5224C6.86691 12.5224 6.63828 12.237 6.63828 11.8849V9.9599C6.63828 9.60782 6.86691 9.3224 7.14892 9.3224C7.43093 9.3224 7.65956 9.60782 7.65956 9.9599V11.8849C7.65956 12.237 7.43093 12.5224 7.14892 12.5224" fill="#526ED3"/>
<path d="M16.1751 17.5202L16.4672 17.247L16.4672 17.247L16.1751 17.5202ZM15.2947 17.4857L15.0251 17.1902L15.0251 17.1902L15.2947 17.4857ZM8.70531 17.4857L8.97492 17.1902L8.97487 17.1902L8.70531 17.4857ZM7.82494 17.5202L7.5328 17.247L7.53278 17.247L7.82494 17.5202ZM7.85985 18.3899L7.59025 18.6853L7.59025 18.6853L7.85985 18.3899ZM24.4 21.0401V18.4429H23.6V21.0401H24.4ZM24.4 18.4429C24.4 17.8863 23.9382 17.4557 23.3945 17.4557V18.2557C23.5196 18.2557 23.6 18.351 23.6 18.4429H24.4ZM23.3945 17.4557C22.8509 17.4557 22.3891 17.8863 22.3891 18.4429H23.1891C23.1891 18.351 23.2694 18.2557 23.3945 18.2557V17.4557ZM22.3891 18.4429V21.0401H23.1891V18.4429H22.3891ZM22.3891 21.0401C22.3891 22.2273 21.3889 23.2147 20.1344 23.2147V24.0147C21.8075 24.0147 23.1891 22.6921 23.1891 21.0401H22.3891ZM20.1344 23.2147H17.4565V24.0147H20.1344V23.2147ZM17.4565 23.2147C16.9128 23.2147 16.451 23.6452 16.451 24.2019H17.251C17.251 24.11 17.3314 24.0147 17.4565 24.0147V23.2147ZM16.451 24.2019C16.451 24.7585 16.9128 25.1891 17.4565 25.1891V24.3891C17.3314 24.3891 17.251 24.2938 17.251 24.2019H16.451ZM17.4565 25.1891H20.1344V24.3891H17.4565V25.1891ZM20.1344 25.1891C22.4751 25.1891 24.4 23.3396 24.4 21.0401H23.6C23.6 22.8749 22.0566 24.3891 20.1344 24.3891V25.1891ZM7.54894 24.2019C7.54894 23.6452 7.08714 23.2147 6.54349 23.2147V24.0147C6.66858 24.0147 6.74894 24.11 6.74894 24.2019H7.54894ZM6.54349 23.2147H3.86555V24.0147H6.54349V23.2147ZM3.86555 23.2147C2.61107 23.2147 1.61089 22.2273 1.61089 21.0401H0.810895C0.810895 22.6921 2.19251 24.0147 3.86555 24.0147V23.2147ZM1.61089 21.0401V18.4429H0.810895V21.0401H1.61089ZM1.61089 18.4429C1.61089 17.8863 1.1491 17.4557 0.605447 17.4557V18.2557C0.730538 18.2557 0.810895 18.351 0.810895 18.4429H1.61089ZM0.605447 17.4557C0.0617984 17.4557 -0.4 17.8863 -0.4 18.4429H0.4C0.4 18.351 0.480356 18.2557 0.605447 18.2557V17.4557ZM-0.4 18.4429V21.0401H0.4V18.4429H-0.4ZM-0.4 21.0401C-0.4 23.3396 1.52482 25.1891 3.86555 25.1891V24.3891C1.94337 24.3891 0.4 22.8749 0.4 21.0401H-0.4ZM3.86555 25.1891H6.54349V24.3891H3.86555V25.1891ZM6.54349 25.1891C7.08714 25.1891 7.54894 24.7585 7.54894 24.2019H6.74894C6.74894 24.2938 6.66858 24.3891 6.54349 24.3891V25.1891ZM1.61089 7.13521V4.53803H0.810895V7.13521H1.61089ZM1.61089 4.53803C1.61089 3.35077 2.61106 2.36344 3.86555 2.36344V1.56344C2.19251 1.56344 0.810895 2.88602 0.810895 4.53803H1.61089ZM3.86555 2.36344H6.54349V1.56344H3.86555V2.36344ZM6.54349 2.36344C7.08714 2.36344 7.54894 1.93291 7.54894 1.37625H6.74894C6.74894 1.46816 6.66858 1.56344 6.54349 1.56344V2.36344ZM7.54894 1.37625C7.54894 0.819592 7.08714 0.389062 6.54349 0.389062V1.18906C6.66858 1.18906 6.74894 1.28434 6.74894 1.37625H7.54894ZM6.54349 0.389062H3.86555V1.18906H6.54349V0.389062ZM3.86555 0.389062C1.52482 0.389062 -0.4 2.23846 -0.4 4.53803H0.4C0.4 2.70321 1.94337 1.18906 3.86555 1.18906V0.389062ZM-0.4 4.53803V7.13521H0.4V4.53803H-0.4ZM-0.4 7.13521C-0.4 7.69186 0.0617984 8.12239 0.605447 8.12239V7.32239C0.480356 7.32239 0.4 7.22712 0.4 7.13521H-0.4ZM0.605447 8.12239C1.1491 8.12239 1.61089 7.69186 1.61089 7.13521H0.810895C0.810895 7.22712 0.730538 7.32239 0.605447 7.32239V8.12239ZM24.4 7.13521V4.53803H23.6V7.13521H24.4ZM24.4 4.53803C24.4 2.23846 22.4751 0.389062 20.1344 0.389062V1.18906C22.0566 1.18906 23.6 2.70321 23.6 4.53803H24.4ZM20.1344 0.389062H17.4565V1.18906H20.1344V0.389062ZM17.4565 0.389062C16.9128 0.389062 16.451 0.819593 16.451 1.37625H17.251C17.251 1.28434 17.3314 1.18906 17.4565 1.18906V0.389062ZM16.451 1.37625C16.451 1.93291 16.9128 2.36344 17.4565 2.36344V1.56344C17.3314 1.56344 17.251 1.46816 17.251 1.37625H16.451ZM17.4565 2.36344H20.1344V1.56344H17.4565V2.36344ZM20.1344 2.36344C21.3889 2.36344 22.3891 3.35077 22.3891 4.53803H23.1891C23.1891 2.88602 21.8075 1.56344 20.1344 1.56344V2.36344ZM22.3891 4.53803V7.13521H23.1891V4.53803H22.3891ZM22.3891 7.13521C22.3891 7.69186 22.8509 8.12239 23.3945 8.12239V7.32239C23.2694 7.32239 23.1891 7.22712 23.1891 7.13521H22.3891ZM23.3945 8.12239C23.9382 8.12239 24.4 7.69186 24.4 7.13521H23.6C23.6 7.22712 23.5196 7.32239 23.3945 7.32239V8.12239ZM16.4098 18.6853C16.8269 18.3048 16.8531 17.6597 16.4672 17.247L15.8829 17.7934C15.9639 17.8801 15.959 18.0137 15.8705 18.0944L16.4098 18.6853ZM16.4672 17.247C16.0839 16.8371 15.4394 16.8123 15.0251 17.1902L15.5643 17.7812C15.6555 17.698 15.7992 17.704 15.8829 17.7935L16.4672 17.247ZM15.0251 17.1902C14.1999 17.9431 13.1262 18.3583 12 18.3583V19.1583C13.3243 19.1583 14.5907 18.6695 15.5643 17.7812L15.0251 17.1902ZM12 18.3583C10.8738 18.3583 9.80006 17.9431 8.97492 17.1902L8.4357 17.7812C9.40927 18.6695 10.6757 19.1583 12 19.1583V18.3583ZM8.97487 17.1902C8.56057 16.8123 7.91611 16.8372 7.5328 17.247L8.11708 17.7935C8.20075 17.704 8.34445 17.698 8.43574 17.7813L8.97487 17.1902ZM7.53278 17.247C7.14688 17.6597 7.17315 18.3048 7.59025 18.6853L8.12946 18.0944C8.04105 18.0137 8.03608 17.8801 8.11711 17.7934L7.53278 17.247ZM7.59025 18.6853C8.79473 19.7843 10.3614 20.3891 12 20.3891V19.5891C10.5595 19.5891 9.18554 19.0579 8.12946 18.0944L7.59025 18.6853ZM12 20.3891C13.6386 20.3891 15.2053 19.7843 16.4098 18.6853L15.8705 18.0944C14.8145 19.0579 13.4405 19.5891 12 19.5891V20.3891ZM13.6766 14.5946V9.9724H12.8766V14.5946H13.6766ZM13.6766 9.9724C13.6766 9.43371 13.275 8.9224 12.6924 8.9224V9.7224C12.755 9.7224 12.8766 9.7931 12.8766 9.9724H13.6766ZM12.6924 8.9224C12.1097 8.9224 11.7082 9.43371 11.7082 9.9724H12.5082C12.5082 9.7931 12.6297 9.7224 12.6924 9.7224V8.9224ZM11.7082 9.9724V14.5946H12.5082V9.9724H11.7082ZM11.7082 14.5946C11.7082 14.5967 11.7074 14.5914 11.7155 14.5825C11.7241 14.5729 11.7475 14.5557 11.7836 14.5557V15.3557C12.2226 15.3557 12.5082 14.9734 12.5082 14.5946H11.7082ZM11.7836 14.5557H11.3076V15.3557H11.7836V14.5557ZM11.3076 14.5557C10.7249 14.5557 10.3234 15.067 10.3234 15.6057H11.1234C11.1234 15.4264 11.2449 15.3557 11.3076 15.3557V14.5557ZM10.3234 15.6057C10.3234 16.1444 10.7249 16.6557 11.3076 16.6557V15.8557C11.2449 15.8557 11.1234 15.785 11.1234 15.6057H10.3234ZM11.3076 16.6557H11.7836V15.8557H11.3076V16.6557ZM11.7836 16.6557C12.8668 16.6557 13.6766 15.6903 13.6766 14.5946H12.8766C12.8766 15.3309 12.3468 15.8557 11.7836 15.8557V16.6557ZM17.7617 11.8849V9.9599H16.9617V11.8849H17.7617ZM17.7617 9.9599C17.7617 9.47431 17.4323 8.9224 16.8511 8.9224V9.7224C16.8526 9.7224 16.856 9.72247 16.8631 9.72621C16.871 9.73039 16.8845 9.73992 16.9 9.75919C16.9317 9.79882 16.9617 9.86845 16.9617 9.9599H17.7617ZM16.8511 8.9224C16.2699 8.9224 15.9404 9.47431 15.9404 9.9599H16.7404C16.7404 9.86845 16.7705 9.79882 16.8022 9.75919C16.8176 9.73992 16.8312 9.73039 16.8391 9.72621C16.8462 9.72247 16.8496 9.7224 16.8511 9.7224V8.9224ZM15.9404 9.9599V11.8849H16.7404V9.9599H15.9404ZM15.9404 11.8849C15.9404 12.3705 16.2699 12.9224 16.8511 12.9224V12.1224C16.8496 12.1224 16.8462 12.1223 16.8391 12.1186C16.8312 12.1144 16.8176 12.1049 16.8022 12.0856C16.7705 12.046 16.7404 11.9763 16.7404 11.8849H15.9404ZM16.8511 12.9224C17.4323 12.9224 17.7617 12.3705 17.7617 11.8849H16.9617C16.9617 11.9763 16.9317 12.046 16.9 12.0856C16.8845 12.1049 16.871 12.1144 16.8631 12.1186C16.856 12.1223 16.8526 12.1224 16.8511 12.1224V12.9224ZM7.14892 12.1224C7.14742 12.1224 7.14401 12.1223 7.13694 12.1186C7.12902 12.1144 7.11548 12.1049 7.10004 12.0856C7.0683 12.046 7.03828 11.9763 7.03828 11.8849H6.23828C6.23828 12.3705 6.56772 12.9224 7.14892 12.9224V12.1224ZM7.03828 11.8849V9.9599H6.23828V11.8849H7.03828ZM7.03828 9.9599C7.03828 9.86845 7.0683 9.79882 7.10004 9.75919C7.11548 9.73992 7.12902 9.73039 7.13694 9.72621C7.14401 9.72247 7.14742 9.7224 7.14892 9.7224V8.9224C6.56772 8.9224 6.23828 9.47431 6.23828 9.9599H7.03828ZM7.14892 9.7224C7.15042 9.7224 7.15382 9.72247 7.1609 9.72621C7.16881 9.73039 7.18236 9.73992 7.1978 9.75919C7.22954 9.79882 7.25956 9.86845 7.25956 9.9599H8.05956C8.05956 9.47431 7.73012 8.9224 7.14892 8.9224V9.7224ZM7.25956 9.9599V11.8849H8.05956V9.9599H7.25956ZM7.25956 11.8849C7.25956 11.9763 7.22954 12.046 7.1978 12.0856C7.18236 12.1049 7.16881 12.1144 7.1609 12.1186C7.15382 12.1223 7.15042 12.1224 7.14892 12.1224V12.9224C7.73012 12.9224 8.05956 12.3705 8.05956 11.8849H7.25956Z" fill="#526ED3"/>
</svg>
